<mxfile host="Electron" modified="2024-03-17T13:45:58.517Z" agent="Mozilla/5.0 (Macintosh; Intel Mac OS X 10_15_7) AppleWebKit/537.36 (KHTML, like Gecko) draw.io/24.0.4 Chrome/120.0.6099.109 Electron/28.1.0 Safari/537.36" etag="qNYzjYEnsEyxaNgBY8a4" version="24.0.4" type="device">
  <diagram id="C5RBs43oDa-KdzZeNtuy" name="Page-1">
    <mxGraphModel dx="1363" dy="891" grid="1" gridSize="10" guides="1" tooltips="1" connect="1" arrows="1" fold="1" page="1" pageScale="1" pageWidth="827" pageHeight="1169" math="0" shadow="0">
      <root>
        <mxCell id="WIyWlLk6GJQsqaUBKTNV-0" />
        <mxCell id="WIyWlLk6GJQsqaUBKTNV-1" parent="WIyWlLk6GJQsqaUBKTNV-0" />
        <mxCell id="WTc1mzcUcTB7aBHpxUNz-6" style="edgeStyle=orthogonalEdgeStyle;rounded=0;orthogonalLoop=1;jettySize=auto;html=1;entryX=0.5;entryY=0;entryDx=0;entryDy=0;" edge="1" parent="WIyWlLk6GJQsqaUBKTNV-1" source="WIyWlLk6GJQsqaUBKTNV-3" target="WTc1mzcUcTB7aBHpxUNz-1">
          <mxGeometry relative="1" as="geometry" />
        </mxCell>
        <mxCell id="WIyWlLk6GJQsqaUBKTNV-3" value="Click to share button" style="rounded=1;whiteSpace=wrap;html=1;fontSize=12;glass=0;strokeWidth=1;shadow=0;" parent="WIyWlLk6GJQsqaUBKTNV-1" vertex="1">
          <mxGeometry x="300" y="80" width="120" height="40" as="geometry" />
        </mxCell>
        <mxCell id="WTc1mzcUcTB7aBHpxUNz-4" value="Yes" style="edgeStyle=orthogonalEdgeStyle;rounded=0;orthogonalLoop=1;jettySize=auto;html=1;entryX=0;entryY=0.5;entryDx=0;entryDy=0;" edge="1" parent="WIyWlLk6GJQsqaUBKTNV-1" source="WTc1mzcUcTB7aBHpxUNz-1" target="WTc1mzcUcTB7aBHpxUNz-2">
          <mxGeometry relative="1" as="geometry" />
        </mxCell>
        <mxCell id="WTc1mzcUcTB7aBHpxUNz-5" value="No" style="edgeStyle=orthogonalEdgeStyle;rounded=0;orthogonalLoop=1;jettySize=auto;html=1;" edge="1" parent="WIyWlLk6GJQsqaUBKTNV-1" source="WTc1mzcUcTB7aBHpxUNz-1" target="WTc1mzcUcTB7aBHpxUNz-3">
          <mxGeometry relative="1" as="geometry" />
        </mxCell>
        <mxCell id="WTc1mzcUcTB7aBHpxUNz-1" value="srcType === 1" style="rhombus;whiteSpace=wrap;html=1;" vertex="1" parent="WIyWlLk6GJQsqaUBKTNV-1">
          <mxGeometry x="295" y="170" width="130" height="80" as="geometry" />
        </mxCell>
        <mxCell id="WTc1mzcUcTB7aBHpxUNz-8" style="edgeStyle=orthogonalEdgeStyle;rounded=0;orthogonalLoop=1;jettySize=auto;html=1;entryX=1;entryY=0.5;entryDx=0;entryDy=0;" edge="1" parent="WIyWlLk6GJQsqaUBKTNV-1" source="WTc1mzcUcTB7aBHpxUNz-2" target="WTc1mzcUcTB7aBHpxUNz-7">
          <mxGeometry relative="1" as="geometry">
            <Array as="points">
              <mxPoint x="560" y="340" />
            </Array>
          </mxGeometry>
        </mxCell>
        <mxCell id="WTc1mzcUcTB7aBHpxUNz-2" value="Get screen source" style="rounded=0;whiteSpace=wrap;html=1;" vertex="1" parent="WIyWlLk6GJQsqaUBKTNV-1">
          <mxGeometry x="500" y="180" width="120" height="60" as="geometry" />
        </mxCell>
        <mxCell id="WTc1mzcUcTB7aBHpxUNz-9" style="edgeStyle=orthogonalEdgeStyle;rounded=0;orthogonalLoop=1;jettySize=auto;html=1;entryX=0;entryY=0.5;entryDx=0;entryDy=0;" edge="1" parent="WIyWlLk6GJQsqaUBKTNV-1" source="WTc1mzcUcTB7aBHpxUNz-3" target="WTc1mzcUcTB7aBHpxUNz-7">
          <mxGeometry relative="1" as="geometry">
            <Array as="points">
              <mxPoint x="160" y="340" />
            </Array>
          </mxGeometry>
        </mxCell>
        <mxCell id="WTc1mzcUcTB7aBHpxUNz-3" value="Get local video source" style="rounded=0;whiteSpace=wrap;html=1;" vertex="1" parent="WIyWlLk6GJQsqaUBKTNV-1">
          <mxGeometry x="100" y="180" width="120" height="60" as="geometry" />
        </mxCell>
        <mxCell id="WTc1mzcUcTB7aBHpxUNz-12" style="edgeStyle=orthogonalEdgeStyle;rounded=0;orthogonalLoop=1;jettySize=auto;html=1;entryX=0.5;entryY=0;entryDx=0;entryDy=0;" edge="1" parent="WIyWlLk6GJQsqaUBKTNV-1" source="WTc1mzcUcTB7aBHpxUNz-7" target="WTc1mzcUcTB7aBHpxUNz-11">
          <mxGeometry relative="1" as="geometry" />
        </mxCell>
        <mxCell id="WTc1mzcUcTB7aBHpxUNz-7" value="Add to video source variable" style="rounded=0;whiteSpace=wrap;html=1;" vertex="1" parent="WIyWlLk6GJQsqaUBKTNV-1">
          <mxGeometry x="300" y="310" width="120" height="60" as="geometry" />
        </mxCell>
        <mxCell id="WTc1mzcUcTB7aBHpxUNz-14" style="edgeStyle=orthogonalEdgeStyle;rounded=0;orthogonalLoop=1;jettySize=auto;html=1;entryX=0.5;entryY=0;entryDx=0;entryDy=0;" edge="1" parent="WIyWlLk6GJQsqaUBKTNV-1" source="WTc1mzcUcTB7aBHpxUNz-11" target="WTc1mzcUcTB7aBHpxUNz-13">
          <mxGeometry relative="1" as="geometry" />
        </mxCell>
        <mxCell id="WTc1mzcUcTB7aBHpxUNz-11" value="Create p2p connection" style="rounded=0;whiteSpace=wrap;html=1;" vertex="1" parent="WIyWlLk6GJQsqaUBKTNV-1">
          <mxGeometry x="300" y="410" width="120" height="60" as="geometry" />
        </mxCell>
        <mxCell id="WTc1mzcUcTB7aBHpxUNz-16" style="edgeStyle=orthogonalEdgeStyle;rounded=0;orthogonalLoop=1;jettySize=auto;html=1;entryX=0.5;entryY=0;entryDx=0;entryDy=0;" edge="1" parent="WIyWlLk6GJQsqaUBKTNV-1" source="WTc1mzcUcTB7aBHpxUNz-13" target="WTc1mzcUcTB7aBHpxUNz-15">
          <mxGeometry relative="1" as="geometry" />
        </mxCell>
        <mxCell id="WTc1mzcUcTB7aBHpxUNz-13" value="Create p2p connection" style="rounded=0;whiteSpace=wrap;html=1;" vertex="1" parent="WIyWlLk6GJQsqaUBKTNV-1">
          <mxGeometry x="300" y="510" width="120" height="60" as="geometry" />
        </mxCell>
        <mxCell id="WTc1mzcUcTB7aBHpxUNz-18" style="edgeStyle=orthogonalEdgeStyle;rounded=0;orthogonalLoop=1;jettySize=auto;html=1;entryX=0.5;entryY=0;entryDx=0;entryDy=0;" edge="1" parent="WIyWlLk6GJQsqaUBKTNV-1" source="WTc1mzcUcTB7aBHpxUNz-15" target="WTc1mzcUcTB7aBHpxUNz-17">
          <mxGeometry relative="1" as="geometry" />
        </mxCell>
        <mxCell id="WTc1mzcUcTB7aBHpxUNz-15" value="Add to p2p track" style="rounded=0;whiteSpace=wrap;html=1;" vertex="1" parent="WIyWlLk6GJQsqaUBKTNV-1">
          <mxGeometry x="300" y="610" width="120" height="60" as="geometry" />
        </mxCell>
        <mxCell id="WTc1mzcUcTB7aBHpxUNz-17" value="Display on shared devices" style="rounded=0;whiteSpace=wrap;html=1;" vertex="1" parent="WIyWlLk6GJQsqaUBKTNV-1">
          <mxGeometry x="300" y="710" width="120" height="60" as="geometry" />
        </mxCell>
      </root>
    </mxGraphModel>
  </diagram>
</mxfile>
